<?xml version="1.0" encoding="UTF-8" standalone="no"?>
<svg
   version="1.2"
   viewBox="0 0 1088 612"
   width="1088"
   height="612"
   id="svg7"
   sodipodi:docname="pika-dark-full.svg"
   inkscape:version="1.2.2 (b0a8486541, 2022-12-01)"
   xmlns:inkscape="http://www.inkscape.org/namespaces/inkscape"
   xmlns:sodipodi="http://sodipodi.sourceforge.net/DTD/sodipodi-0.dtd"
   xmlns="http://www.w3.org/2000/svg"
   xmlns:svg="http://www.w3.org/2000/svg"
   xmlns:rdf="http://www.w3.org/1999/02/22-rdf-syntax-ns#"
   xmlns:cc="http://creativecommons.org/ns#"
   xmlns:dc="http://purl.org/dc/elements/1.1/">
  <defs
     id="defs11" />
  <sodipodi:namedview
     id="namedview9"
     pagecolor="#000000"
     bordercolor="#999999"
     borderopacity="1"
     inkscape:showpageshadow="0"
     inkscape:pageopacity="0"
     inkscape:pagecheckerboard="0"
     inkscape:deskcolor="#d1d1d1"
     showgrid="false"
     inkscape:zoom="1.0392157"
     inkscape:cx="829.4717"
     inkscape:cy="173.68868"
     inkscape:window-width="1920"
     inkscape:window-height="943"
     inkscape:window-x="0"
     inkscape:window-y="0"
     inkscape:window-maximized="1"
     inkscape:current-layer="svg7" />
  <title
     id="title2">pika</title>
  <style
     id="style4">
		.s0 { fill: #ffffff } 
	</style>
  <path
     id="PikaOS"
     class="s0"
     aria-label="PikaOS"
     d="m140.5 295.5h-27v-59.2h28.6c18.3 0 28.5 11.8 28.5 28.8 0 17.1-9.9 30.4-30.1 30.4zm-76.5 73.8c0 14.5 10.2 25.7 24.8 25.7 14.5 0 24.7-11.2 24.7-25.7v-30.7h31.1c44.9 0 75.6-29.2 75.6-73.5 0-36.3-24.8-73.8-76-73.8h-55.4c-14.6 0-24.8 11.2-24.8 25.8zm199.9-148.8c15.8 0 27.9-11.8 27.9-27.6 0-15.8-12.1-27.6-27.9-27.6-15.8 0-27.6 11.8-27.6 27.6 0 15.8 11.8 27.6 27.6 27.6zm-24.2 149.4c0 14.6 9.9 25.1 24.5 25.1 14.3 0 24.2-10.5 24.2-25.1v-105.4c0-14.6-9.9-25.1-24.2-25.1-14.6 0-24.5 10.5-24.5 25.1zm98-194.1c-14.3 0-24.2 10.9-24.2 25.4v168.7c0 14.6 9.9 25.1 24.2 25.1 14.2 0 24.5-10.5 24.5-25.1v-35.7h13c13.9 0 17.3 7.2 22 18.6l10.2 24.8c4.1 9.6 11.2 17.4 23.6 17.4 19.8 0 27.6-18 22.3-32.2l-9.9-26.4c-5-13.9-12.1-21.7-24.2-26.7 10.6-4.9 18.3-14.5 21.7-23.2l6.5-15.2c4.4-12.4-1.8-31.9-23.5-31.9-9.6 0-19 4.9-22.7 16.4l-8 18.3c-4.1 10.5-8.4 16.7-19.6 16.7h-11.4v-89.6c0-14.5-10.3-25.4-24.5-25.4zm201.2 221.7c24.5 0 40.3-11.8 46.5-22.7h2.4v0.7c0 11.4 9 19.5 21.7 19.5 14.9 0 24.2-10.5 24.2-25.1v-63.6c0-43.4-35.9-69.4-81.2-69.4-48 0-86.2 31.3-86.2 82.1 0 47.5 32.9 78.5 72.6 78.5zm-23.6-79.7c0-22.6 11.5-39.4 36.3-39.4 19.5 0 33.8 10 33.8 32v13.9c0 21.4-16.2 32.3-35.4 32.3-21.7 0-34.7-14-34.7-38.8zm244.9 79.7c60.8 0 105.1-43.1 105.1-104.2 0-61.1-44.6-104.5-105.1-104.5-60.4 0-105.1 43.4-105.1 104.5 0 61.1 44.3 104.2 105.1 104.2zm-54.9-104.2c0-34.1 21.7-57.6 54.9-57.6 33.2 0 54.9 23.5 54.9 57.6 0 34.1-21.7 57.4-54.9 57.4-33.2 0-54.9-23.3-54.9-57.4zm230.7-46.2c0-8.7 8-15.2 23.2-15.2 18 0 28.5 10.3 36 15.2 4.6 2.8 8.7 3.7 12.4 3.7 13.3 0 23.2-10.2 23.2-23.5 0-7.8-3.7-13.3-9.3-18-12.4-10.8-36.5-20.5-61.7-20.5-39 0-74 21.7-74 62.4 0 68.5 101.9 54.2 101.9 84.3 0 9-8.3 17.6-25.7 17.6-24.5 0-41.2-15.8-47.1-19.8-3.4-2.2-7.8-3.7-12.4-3.7-13 0-23.6 10.5-23.6 24.2 0 7.4 3.1 13 8.1 17.6 9.6 9.6 36.9 26.1 73.5 26.1 45.2 0 77.5-25.1 77.5-64.5 0-70.4-102-55.8-102-85.9z" />
  <metadata
     id="metadata117">
    <rdf:RDF>
      <cc:Work
         rdf:about="">
        <dc:title>pika</dc:title>
      </cc:Work>
    </rdf:RDF>
  </metadata>
  <path
     style="fill:#4d4d4d;fill-opacity:1;stroke-width:0.21483"
     d="m 715.19643,301.46683 c -0.42931,0.73965 -0.85964,1.46062 -1.28769,2.22514 l -4.6141,8.4407 c 0,0 4.44871,9.21035 7.52585,13.25234 2.01095,2.64137 4.29586,5.10899 6.81032,7.2925 0.77983,0.81628 1.59283,1.52316 2.47849,2.00487 1.09978,0.90094 2.27631,1.71507 3.48196,2.49519 5.37955,3.71947 11.16301,6.96588 17.37564,8.854 6.20686,1.88632 19.37978,1.78325 19.37978,1.78325 0,0 0.0854,-1.12281 0.25937,-2.93856 0.17395,-1.81574 0.43635,-4.32436 0.79016,-7.09601 0.43784,-3.42997 1.03362,-7.21174 1.75709,-10.63242 -13.95109,1.19699 -28.27556,-2.73544 -39.63381,-10.92944 -5.58764,-4.03098 -10.45459,-9.05104 -14.32306,-14.75156 z"
     id="path162" />
  <path
     style="fill:#4d4d4d;fill-opacity:1;stroke-width:0.21483"
     d="m 792.87752,283.487 c -3.47824,3.3665 -6.18124,7.5395 -7.80987,12.09717 -1.36347,3.81569 -1.97829,7.89917 -1.81336,11.94858 0.76865,-0.19479 1.5688,-0.36173 2.42718,-0.47979 h -0.004 c 7.72898,-1.2526 8.68279,-5.40935 8.68279,-5.40935 4.35508,4.26796 -0.25542,7.72882 2.2886,7.36307 1.3957,-0.20065 2.5159,-0.88831 3.37096,-1.91657 0.2849,-0.34272 0.54054,-0.72332 0.76695,-1.13632 2.71714,-4.95609 1.24272,-14.58084 -3.78208,-19.50479 -1.2281,-1.20355 -2.73805,-2.18793 -4.12453,-2.95012 0,-0.003 -0.003,-0.008 -0.003,-0.0119 z"
     id="path165" />
  <path
     style="fill:#ffc509;fill-opacity:1;stroke-width:0.21483"
     d="m 756.27874,237.81586 c -0.27617,0.0233 -0.53165,0.16665 -0.68065,0.3969 -2.10819,3.24912 -2.63127,8.09228 -1.43497,13.28739 0.59447,2.58155 1.56263,5.04879 2.79998,7.25533 l -1.66124,-2.34488 c -1.81472,-2.72685 -3.91598,-7.13445 -4.5232,-13.44731 -0.0357,-0.36986 -0.32115,-0.67669 -0.7083,-0.7605 -0.0967,-0.0213 -0.1946,-0.0271 -0.28991,-0.0192 l 0.003,-0.004 c -0.28578,0.0239 -0.5501,0.1725 -0.70426,0.41073 -2.18146,3.36199 -2.72262,8.37343 -1.48478,13.74895 0.74132,3.21931 2.03447,6.27578 3.71455,8.88169 -0.003,0 -0.004,0 -0.005,0.003 -0.16755,0.0632 -0.33172,0.14106 -0.49874,0.20642 -0.34453,0.13482 -0.68652,0.28149 -1.02893,0.42561 -0.6181,0.26021 -1.23339,0.53394 -1.84477,0.8246 -0.34822,0.16557 -0.69607,0.33379 -1.04217,0.50928 -0.62498,0.3169 -1.24573,0.65511 -1.86405,1.00453 -0.31075,0.17564 -0.62317,0.34404 -0.93232,0.52792 -0.78493,0.46695 -1.56424,0.96342 -2.339,1.48388 -0.13023,0.0875 -0.26243,0.16449 -0.39236,0.25349 -0.90194,0.61776 -1.7963,1.27735 -2.68534,1.96862 -0.26181,0.20356 -0.52087,0.42476 -0.78158,0.63473 -0.62946,0.50695 -1.25714,1.02575 -1.88061,1.57023 -0.31856,0.27821 -0.63557,0.568 -0.95262,0.85605 -0.57018,0.51802 -1.1383,1.05105 -1.70383,1.60106 -0.31984,0.31108 -0.63965,0.6239 -0.95803,0.94526 -0.58582,0.59123 -1.1687,1.20585 -1.74987,1.83202 -0.28094,0.30266 -0.56308,0.59676 -0.84297,0.90764 -0.7824,0.869 -1.56121,1.76849 -2.33601,2.7019 -0.0691,0.0833 -0.1391,0.15942 -0.20822,0.24327 -0.84292,1.02261 -1.68095,2.09104 -2.51577,3.19068 -0.25937,0.34168 -0.51706,0.7019 -0.7757,1.05103 -0.57851,0.7809 -1.15612,1.57352 -1.7312,2.39198 -0.30505,0.43411 -0.60923,0.87952 -0.91337,1.32423 -0.53659,0.78463 -1.07205,1.5856 -1.60605,2.40339 -0.30318,0.46433 -0.60643,0.92954 -0.90883,1.40458 -0.56113,0.88147 -1.12066,1.78826 -1.67932,2.70688 -0.26251,0.43163 -0.52587,0.8532 -0.7879,1.2931 -0.14591,0.24496 -0.29078,0.50762 -0.43658,0.75462 3.83782,5.78821 8.72698,10.88026 14.35917,14.94339 11.20776,8.08537 25.40596,11.93961 39.1656,10.66267 0.37166,-1.61338 0.76644,-3.14017 1.20856,-4.41217 2.20682,-6.96908 5.35788,-11.55843 11.35623,-13.53535 -0.21753,-4.31623 0.41542,-8.67306 1.87022,-12.74427 1.77883,-4.97793 4.78211,-9.50259 8.66188,-13.09015 -0.55537,-2.28747 -1.37722,-5.48476 -3.24953,-8.74733 -1.79516,-3.12803 -4.06356,-5.82545 -7.10803,-7.36622 -10.4541,-7.09956 -14.6593,-14.76547 -18.6957,-23.31803 -0.15579,-0.33003 -0.52276,-0.52911 -0.9054,-0.49091 -0.38392,0.0374 -0.69797,0.30216 -0.7775,0.65505 -0.79238,3.51696 -0.61564,6.52289 -0.17859,8.77065 -1.75382,-2.63535 -3.78445,-6.89502 -4.37126,-12.99582 -0.0345,-0.35746 -0.3104,-0.65395 -0.68454,-0.73494 -0.0935,-0.0204 -0.18802,-0.0262 -0.28013,-0.0186 z"
     id="path166" />
  <path
     d="m 772.9767,298.30535 c 0,-8.82926 -7.18292,-16.01238 -16.01237,-16.01238 -8.82949,0 -16.01238,7.18312 -16.01238,16.01238 0,8.82922 7.18289,16.01234 16.01238,16.01234 8.82945,0 16.01237,-7.18312 16.01237,-16.01234 z"
     id="path168"
     style="fill:#ed540e;fill-opacity:1;stroke-width:0.447039" />
  <path
     d="m 794.95919,287.78233 c 0,-0.80265 -0.65301,-1.45567 -1.45567,-1.45567 -0.80269,0 -1.45567,0.65302 -1.45567,1.45567 0,0.80266 0.65298,1.45567 1.45567,1.45567 0.80266,0 1.45567,-0.65301 1.45567,-1.45567 z"
     id="path169"
     style="fill:#ffffff;stroke-width:0.04064" />
  <path
     d="m 780.78646,279.03288 c 0,-2.88956 -2.35085,-5.24041 -5.24041,-5.24041 -2.88968,0 -5.24042,2.35085 -5.24042,5.24041 0,2.88956 2.35074,5.24041 5.24042,5.24041 2.88956,0 5.24041,-2.35085 5.24041,-5.24041 z"
     id="path172"
     style="fill:#ffffff;fill-opacity:1;stroke-width:0.146304" />
  <path
     id="path174"
     style="fill:#e5ae00;fill-opacity:1;stroke-width:0.21483"
     d="m 756.27868,237.81586 c -0.13809,0.0116 -0.27099,0.0533 -0.388,0.12082 -0.11703,0.0676 -0.21814,0.16094 -0.29265,0.27608 -0.2635,0.40614 -0.50223,0.83716 -0.71595,1.29069 -0.21372,0.45347 -0.40244,0.92947 -0.56585,1.42548 0,6e-5 3e-5,1.5e-4 0,1.5e-4 -0.16341,0.49607 -0.30147,1.01213 -0.41402,1.54587 -0.11255,0.5337 -0.19955,1.08508 -0.26074,1.6516 0,6e-5 0,1.5e-4 0,1.5e-4 -0.0612,0.56652 -0.0966,1.14827 -0.10592,1.74279 0,3e-5 0,8e-5 0,1.6e-4 -0.009,0.59225 0.008,1.19723 0.0504,1.81242 0,0.005 0,0.01 0,0.0146 0.043,0.6126 0.112,1.23546 0.20703,1.86602 0,0.006 0.003,0.0117 0.003,0.0172 0.0958,0.63258 0.21765,1.27281 0.36633,1.91866 1.6e-4,0 2.3e-4,0 0,0.003 3e-5,3e-5 0,8e-5 0,1.6e-4 1.6e-4,0 0,0 0,0.003 0.14833,0.64396 0.3201,1.28081 0.51333,1.90827 2.3e-4,0 0,0 0,0.003 2.3e-4,0 0,0.003 0,0.003 0.1927,0.62535 0.40697,1.24122 0.64105,1.84567 0.003,0.005 0.004,0.01 0.006,0.0148 0.23471,0.60509 0.48907,1.19872 0.76201,1.77828 0.27349,0.58072 0.5655,1.14741 0.8741,1.69795 0,0 0,0.003 0.003,0.003 l -1.66095,-2.3443 c -0.22682,-0.34083 -0.45807,-0.70804 -0.69039,-1.10185 -0.23233,-0.39382 -0.46559,-0.81431 -0.69642,-1.26198 -0.23021,-0.4464 -0.45805,-0.91999 -0.67989,-1.42082 0,0 0,-0.003 -0.003,-0.004 0,0 0,-0.003 0,-0.003 -0.2219,-0.50142 -0.43795,-1.03015 -0.64451,-1.58692 -0.20671,-0.55708 -0.40398,-1.1422 -0.58842,-1.75559 0,0 0,-0.003 0,-0.003 -2.3e-4,0 0,-0.003 0,-0.003 -0.18356,-0.611 -0.35416,-1.25021 -0.50881,-1.9179 0,-0.006 -0.003,-0.0117 -0.004,-0.0175 -0.15459,-0.66923 -0.29317,-1.36696 -0.41178,-2.09392 -0.11858,-0.72676 -0.21716,-1.48284 -0.29291,-2.26814 0,-0.003 0,-0.007 0,-0.0102 -0.009,-0.0925 -0.0333,-0.18106 -0.0711,-0.26313 -0.0757,-0.16417 -0.20461,-0.30257 -0.36814,-0.39521 -0.0818,-0.0464 -0.17223,-0.0812 -0.26901,-0.10216 -0.0967,-0.0213 -0.19459,-0.0271 -0.28991,-0.0192 l 0.003,-0.004 c -0.28578,0.0239 -0.5501,0.1725 -0.70425,0.41073 -0.27268,0.42026 -0.51979,0.86624 -0.74094,1.33552 -0.22114,0.46928 -0.41632,0.96185 -0.58538,1.47515 -0.16909,0.51324 -0.31204,1.04733 -0.42849,1.59955 0,6e-5 0,1.5e-4 0,1.5e-4 -0.11646,0.55226 -0.20659,1.12273 -0.26991,1.70893 0,6e-5 3e-5,1.6e-4 0,1.6e-4 -0.0633,0.58625 -0.0999,1.1882 -0.10953,1.8034 -0.01,0.61511 0.008,1.24352 0.0525,1.88256 0,6e-5 0,7e-5 0,1.5e-4 0,2.3e-4 -3e-5,0 0,0 0.0446,0.63895 0.11651,1.2885 0.21588,1.94635 0.0994,0.65805 0.22636,1.32434 0.38109,1.99628 0.18505,0.80356 0.40456,1.59693 0.65581,2.37571 3e-5,1.8e-4 8e-5,0 1.6e-4,0 0,0.004 0.003,0.009 0.005,0.0134 0.2502,0.77421 0.53167,1.53407 0.84222,2.27492 0,3e-5 -3e-5,1.2e-4 0,1.5e-4 0.003,0.008 0.007,0.016 0.0108,0.0242 0.30939,0.73611 0.64698,1.45372 1.01099,2.14811 2.3e-4,0 0,0 0,0 0.006,0.0119 0.0131,0.0233 0.0195,0.0351 0.36302,0.6899 0.75116,1.35744 1.16326,1.99736 15.25533,-5.75185 28.58596,-0.41254 30.82702,0.71161 0,0 -0.003,-0.003 -0.003,-0.003 -0.59767,-0.40671 -1.17269,-0.81564 -1.73059,-1.22614 -0.053,-0.039 -0.10789,-0.0777 -0.16053,-0.11674 -0.55036,-0.408 -1.07964,-0.81806 -1.59323,-1.22993 -0.0545,-0.0437 -0.11063,-0.0873 -0.16475,-0.13104 -0.50829,-0.41105 -0.9976,-0.82423 -1.47183,-1.23924 -3.6933,-3.23246 -6.38856,-6.58668 -8.6038,-10.09068 -6e-5,-8e-5 -8e-5,-2.3e-4 -1.5e-4,0 -0.61965,-0.98001 -1.20154,-1.97185 -1.75799,-2.97585 -0.006,-0.0105 -0.0119,-0.0207 -0.0178,-0.0312 0,-0.003 -0.003,-0.003 -0.003,-0.004 -0.55834,-1.00878 -1.09076,-2.03008 -1.60875,-3.06431 -0.003,-0.005 -0.005,-0.009 -0.007,-0.014 v 0 c -0.52084,-1.04028 -1.02712,-2.09363 -1.53081,-3.1609 -0.15579,-0.33003 -0.52276,-0.52911 -0.9054,-0.49091 -0.38392,0.0374 -0.69796,0.30217 -0.7775,0.65505 -0.3962,1.75848 -0.55013,3.38918 -0.55036,4.86127 -1.5e-4,0.73602 0.0382,1.43235 0.10382,2.08519 0.0657,0.65287 0.1587,1.26224 0.26796,1.82419 -0.43848,-0.65884 -0.89434,-1.41928 -1.3405,-2.28456 -0.22246,-0.4314 -0.44249,-0.88901 -0.65686,-1.37299 0,0 0,-0.003 -0.003,-0.004 0,0 0,-0.003 0,-0.003 -0.21442,-0.48456 -0.42322,-0.99547 -0.62285,-1.53352 -0.20004,-0.53924 -0.39096,-1.10549 -0.56943,-1.69929 -0.17846,-0.5938 -0.34438,-1.21513 -0.49452,-1.86436 -0.15016,-0.6492 -0.28449,-1.32647 -0.39961,-2.03195 -0.11508,-0.70547 -0.21098,-1.43919 -0.28432,-2.20178 -0.0345,-0.35746 -0.31041,-0.65395 -0.68454,-0.73494 -0.0935,-0.0204 -0.18802,-0.0262 -0.28013,-0.0186 z" />
  <path
     d="m 778.16625,279.03288 c 0,-1.44478 -1.17542,-2.62021 -2.6202,-2.62021 -1.44484,0 -2.62021,1.17543 -2.62021,2.62021 0,1.44478 1.17537,2.62021 2.62021,2.62021 1.44478,0 2.6202,-1.17543 2.6202,-2.62021 z"
     id="path1"
     style="fill:#000000;fill-opacity:1;stroke-width:0.0731521" />
  <path
     d="m 775.54606,278.26958 c 0,-0.3612 -0.29386,-0.65506 -0.65505,-0.65506 -0.36121,0 -0.65505,0.29386 -0.65505,0.65506 0,0.36119 0.29384,0.65505 0.65505,0.65505 0.36119,0 0.65505,-0.29386 0.65505,-0.65505 z"
     id="path2"
     style="fill:#ffffff;fill-opacity:1;stroke-width:0.018288" />
</svg>
