<?xml version="1.0" encoding="UTF-8" standalone="no"?>
<!-- Created with Inkscape (http://www.inkscape.org/) -->

<svg
   width="400mm"
   height="400.00012mm"
   viewBox="0 0 400 400.00012"
   version="1.1"
   id="svg1"
   sodipodi:docname="PikaOS2-Piaf-RoundEye-Mono.svg"
   inkscape:version="1.3 (0e150ed6c4, 2023-07-21)"
   xmlns:inkscape="http://www.inkscape.org/namespaces/inkscape"
   xmlns:sodipodi="http://sodipodi.sourceforge.net/DTD/sodipodi-0.dtd"
   xmlns="http://www.w3.org/2000/svg"
   xmlns:svg="http://www.w3.org/2000/svg">
  <sodipodi:namedview
     id="namedview1"
     pagecolor="#ffffff"
     bordercolor="#000000"
     borderopacity="0.25"
     inkscape:showpageshadow="2"
     inkscape:pageopacity="0.0"
     inkscape:pagecheckerboard="0"
     inkscape:deskcolor="#d1d1d1"
     inkscape:document-units="mm"
     inkscape:zoom="0.33403636"
     inkscape:cx="775.3647"
     inkscape:cy="731.95625"
     inkscape:window-width="1366"
     inkscape:window-height="707"
     inkscape:window-x="0"
     inkscape:window-y="0"
     inkscape:window-maximized="1"
     inkscape:current-layer="svg1" />
  <defs
     id="defs1" />
  <circle
     style="fill:#ffffff;stroke:none;stroke-width:0.537883"
     id="circle160"
     cx="200"
     cy="200"
     r="200" />
  <path
     style="fill:#000000;fill-opacity:1;stroke-width:0.737906"
     d="m 39.987652,235.21113 c -1.4746,2.5406 -2.9527,5.017 -4.423,7.643 l -15.8487,28.9925 c 0,0 15.2806,31.6361 25.8501,45.5197 6.9073,9.0727 14.7556,17.5486 23.3924,25.0486 2.6786,2.8038 5.4711,5.2318 8.5132,6.8864 3.7776,3.0946 7.8188,5.891 11.96,8.5706 18.477898,12.7758 38.343198,23.9267 59.682598,30.4121 21.3196,6.4792 66.5665,6.1252 66.5665,6.1252 0,0 0.2934,-3.8567 0.8909,-10.0935 0.5975,-6.2368 1.4988,-14.8535 2.7141,-24.3737 1.5039,-11.7814 3.5503,-24.7712 6.0353,-36.5207 -47.9198,4.1115 -97.1221,-9.3958 -136.135898,-37.5409 -19.1927,-13.8458 -35.9099,-31.0889 -49.1975,-50.6693 z"
     id="path162" />
  <path
     id="path163"
     style="fill:#000000;stroke:none;stroke-width:0.537883"
     d="M 199.99975,2.26e-4 A 200,200 0 0 0 5.2e-5,200.00043 200,200 0 0 0 199.99975,400.00013 200,200 0 0 0 399.99995,200.00043 200,200 0 0 0 199.99975,2.26e-4 Z m 0,9.9999 A 190,190 0 0 1 389.99995,200.00043 190,190 0 0 1 199.99975,390.00013 190,190 0 0 1 9.999952,200.00043 190,190 0 0 1 199.99975,10.000126 Z" />
  <path
     style="fill:#000000;fill-opacity:1;stroke-width:0.737906"
     d="m 306.81005,173.45323 c -11.9472,11.5634 -21.2316,25.897 -26.8257,41.5519 -4.6833,13.1063 -6.7951,27.1324 -6.2286,41.0415 2.6402,-0.6691 5.3886,-1.2425 8.337,-1.648 h -0.012 c 26.5478,-4.3025 29.824,-18.5803 29.824,-18.5803 14.959,14.6598 -0.8773,26.5473 7.861,25.291 4.794,-0.6892 8.6417,-3.0512 11.5787,-6.5831 0.9786,-1.1772 1.8567,-2.4845 2.6344,-3.9031 9.3329,-17.0234 4.2685,-50.0829 -12.9909,-66.9959 -4.2183,-4.134 -9.4048,-7.5152 -14.1671,-10.1332 0,-0.012 -0.01,-0.029 -0.01,-0.041 z"
     id="path165" />
  <path
     style="fill:#000000;fill-opacity:1;stroke-width:0.737906"
     d="m 181.09895,16.580026 c -0.9486,0.08 -1.8261,0.5724 -2.3379,1.3633 -7.2413,11.1602 -9.038,27.7957 -4.9289,45.6401 2.0419,8.8672 5.3674,17.3418 9.6175,24.9209 l -5.7061,-8.0543 c -6.2333,-9.3663 -13.4508,-24.5057 -15.5365,-46.1894 -0.1225,-1.2704 -1.1031,-2.3243 -2.4329,-2.6122 -0.3323,-0.073 -0.6684,-0.093 -0.9958,-0.066 l 0.01,-0.013 c -0.9816,0.082 -1.8895,0.5925 -2.419,1.4108 -7.493,11.5479 -9.3518,28.7614 -5.1,47.2255 2.5463,11.0578 6.9881,21.556304 12.7589,30.507204 -0.01,0 -0.012,0 -0.018,0.01 -0.5755,0.217 -1.1394,0.4845 -1.7131,0.709 -1.1834,0.4631 -2.3581,0.9669 -3.5342,1.4619 -2.1231,0.8938 -4.2365,1.834 -6.3365,2.8324 -1.1961,0.5687 -2.3909,1.1465 -3.5797,1.7493 -2.1467,1.0885 -4.2789,2.2502 -6.4027,3.4504 -1.0674,0.6033 -2.1405,1.1817 -3.2024,1.8133 -2.6961,1.6039 -5.3729,3.3092 -8.0341,5.0969 -0.4473,0.3005 -0.9014,0.565 -1.3477,0.8707 -3.098,2.1219 -6.17,4.3875 -9.2237,6.7619 -0.8993,0.6992 -1.7891,1.459 -2.6846,2.1802 -2.1621,1.7413 -4.3181,3.5233 -6.4596,5.3935 -1.0942,0.9556 -2.1831,1.951 -3.2721,2.9404 -1.9585,1.7793 -3.9099,3.6102 -5.8524,5.4994 -1.0986,1.0685 -2.1971,2.143 -3.290698,3.2468 -2.0122,2.0308 -4.0143,4.1419 -6.0105,6.2927 -0.965,1.0396 -1.9341,2.0498 -2.8955,3.1176 -2.6874,2.9849 -5.3625,6.0745 -8.0238,9.2806 -0.2375,0.2861 -0.4778,0.5476 -0.7152,0.8356 -2.8953,3.5125 -5.7738,7.1824 -8.6413,10.9595 -0.8909,1.1736 -1.776,2.4109 -2.6644,3.6101 -1.9871,2.6823 -3.9711,5.4048 -5.9464,8.2161 -1.0478,1.4911 -2.0926,3.021 -3.1373,4.5485 -1.8431,2.6951 -3.6823,5.4463 -5.5165,8.2553 -1.0414,1.5949 -2.083,3.1928 -3.1217,4.8245 -1.9274,3.0277 -3.8493,6.1424 -5.7682,9.2977 -0.9017,1.4826 -1.8063,2.9306 -2.7063,4.4416 -0.5012,0.8414 -0.9988,1.7436 -1.4996,2.592 13.1823,19.8816 29.9758,37.372 49.3215,51.3282 38.496898,27.772 87.265498,41.0107 134.527698,36.6246 1.2766,-5.5417 2.6326,-10.786 4.1512,-15.1551 7.5801,-23.9377 18.4035,-39.7014 39.0069,-46.4918 -0.7472,-14.8256 1.4269,-29.7906 6.4239,-43.7746 6.11,-17.0984 16.4258,-32.6399 29.7522,-44.9626 -1.9076,-7.8571 -4.7305,-18.8393 -11.1616,-30.0457 -6.1661,-10.7443 -13.9577,-20.0095 -24.415,-25.3018 -35.9082,-24.385904 -50.3524,-50.717104 -64.2168,-80.093804 -0.5351,-1.1336 -1.7956,-1.8174 -3.1099,-1.6862 -1.3187,0.1285 -2.3974,1.0379 -2.6706,2.25 -2.7217,12.0802 -2.1146,22.4051 -0.6134,30.1258 -6.0241,-9.052 -12.999,-23.6833 -15.0146,-44.6386 -0.1184,-1.2278 -1.0662,-2.2462 -2.3513,-2.5244 -0.3212,-0.07 -0.6458,-0.09 -0.9622,-0.064 z"
     id="path166" />
  <path
     d="m 238.45385,224.35193 c 0,-30.3271 -24.6722,-55 -55,-55 -30.3279,0 -55,24.6729 -55,55 0,30.327 24.6721,54.9999 55,54.9999 30.3278,0 55,-24.6729 55,-54.9999 z"
     id="path168"
     style="fill:#ffffff;fill-opacity:1;stroke-width:1.53551" />
  <path
     d="m 313.96025,188.20703 c 0,-2.757 -2.243,-5 -5,-5 -2.7571,0 -5,2.243 -5,5 0,2.757 2.2429,5 5,5 2.757,0 5,-2.243 5,-5 z"
     id="path169"
     style="fill:#ffffff;stroke-width:0.139592" />
  <path
     d="m 265.27915,158.15403 c 0,-9.9252 -8.0748,-18 -18,-18 -9.9256,0 -18,8.0748 -18,18 0,9.9252 8.0744,18 18,18 9.9252,0 18,-8.0748 18,-18 z"
     id="path172"
     style="fill:#ffffff;fill-opacity:1;stroke-width:0.502532" />
  <path
     id="path174"
     style="fill:#000000;fill-opacity:1;stroke-width:0.737906"
     d="m 181.09875,16.580026 c -0.4743,0.04 -0.9308,0.183 -1.3327,0.415 -0.402,0.232 -0.7493,0.5528 -1.0052,0.9483 -0.9051,1.395 -1.7251,2.8755 -2.4592,4.4333 -0.7341,1.5576 -1.3823,3.1926 -1.9436,4.8963 0,2e-4 1e-4,4e-4 0,5e-4 -0.5613,1.7039 -1.0355,3.4765 -1.4221,5.3098 -0.3866,1.8332 -0.6854,3.7271 -0.8956,5.673 0,2e-4 0,4e-4 0,6e-4 -0.2101,1.9459 -0.3318,3.9441 -0.3638,5.9862 0,10e-5 0,3e-4 0,5e-4 -0.032,2.0343 0.026,4.1123 0.1731,6.2254 0,0.017 0,0.033 0,0.05 0.1476,2.1042 0.3847,4.2436 0.7111,6.4095 0,0.02 0.01,0.04 0.01,0.059 0.329,2.1728 0.7476,4.3719 1.2583,6.5903 4e-4,0 7e-4,0 0,0.01 1e-4,10e-5 0,3e-4 0,5e-4 6e-4,0 0,0 0,0.01 0.5095,2.2119 1.0995,4.3994 1.7632,6.5546 7e-4,0 0,0 0,0.01 9e-4,0 0,0.01 0,0.01 0.6619,2.148 1.3979,4.2634 2.2019,6.3396 0.01,0.017 0.013,0.034 0.02,0.051 0.8062,2.0784 1.6799,4.1174 2.6174,6.1081 0.9394,1.9947 1.9424,3.9412 3.0024,5.8322 0,0 0,0.01 0.01,0.01 l -5.7051,-8.0523 c -0.7791,-1.1707 -1.5734,-2.432 -2.3714,-3.7847 -0.798,-1.3527 -1.5992,-2.797 -2.3921,-4.3347 -0.7907,-1.5333 -1.5733,-3.16 -2.3353,-4.8803 0,0 0,-0.01 -0.01,-0.014 0,0 0,-0.01 0,-0.011 -0.7622,-1.7223 -1.5043,-3.5384 -2.2138,-5.4508 -0.71,-1.9135 -1.3876,-3.9233 -2.0211,-6.0302 0,0 0,-0.01 0,-0.01 -7e-4,0 0,-0.01 0,-0.01 -0.6305,-2.0987 -1.2165,-4.2943 -1.7477,-6.5877 0,-0.02 -0.01,-0.04 -0.014,-0.06 -0.531,-2.2987 -1.007,-4.6953 -1.4144,-7.1923 -0.4073,-2.4963 -0.7459,-5.0933 -1.0061,-7.7907 0,-0.012 0,-0.023 0,-0.035 -0.031,-0.3176 -0.1145,-0.6219 -0.2444,-0.9038 -0.2599,-0.5639 -0.7028,-1.0393 -1.2645,-1.3575 -0.2809,-0.1592 -0.5916,-0.2789 -0.924,-0.3509 -0.3323,-0.073 -0.6684,-0.093 -0.9958,-0.066 l 0.01,-0.013 c -0.9816,0.082 -1.8895,0.5925 -2.419,1.4108 -0.9366,1.4435 -1.7854,2.9754 -2.545,4.5873 -0.7596,1.6119 -1.43,3.3038 -2.0107,5.0669 -0.5808,1.7629 -1.0718,3.5974 -1.4718,5.4942 0,2e-4 0,4e-4 0,5e-4 -0.4,1.8969 -0.7096,3.8564 -0.9271,5.8699 0,2e-4 1e-4,4e-4 0,6e-4 -0.2174,2.0137 -0.3432,4.0813 -0.3762,6.1944 -0.033,2.1128 0.027,4.2713 0.1804,6.4663 0,2e-4 0,3e-4 0,5e-4 0,9e-4 -1e-4,0 0,0 0.1533,2.1947 0.4002,4.4258 0.7415,6.6854 0.3415,2.2603 0.7775,4.5489 1.309,6.8569 0.6356,2.7601 1.3896,5.4852 2.2526,8.1602 1e-4,6e-4 3e-4,0 5e-4,0 0,0.015 0.011,0.03 0.016,0.046 0.8594,2.6593 1.8262,5.2693 2.8929,7.814 0,1e-4 -1e-4,4e-4 0,5e-4 0.012,0.028 0.025,0.055 0.037,0.083 1.0627,2.5284 2.2223,4.993304 3.4726,7.378404 8e-4,0 0,0 0,0 0.021,0.041 0.045,0.08 0.067,0.1204 1.2469,2.3697 2.5801,4.6626 3.9956,6.8606 52.3997,-19.756704 98.1883,-1.417 105.886,2.4443 0,0 -0.01,-0.01 -0.012,-0.01 -2.0529,-1.397 -4.028,-2.8016 -5.9443,-4.2116 -0.1819,-0.1339 -0.3706,-0.267 -0.5514,-0.401 -1.8904,-1.4014 -3.7084,-2.8099 -5.4725,-4.2246 -0.1873,-0.1501 -0.38,-0.2998 -0.5659,-0.4501 -1.7459,-1.4119 -3.4266,-2.8311 -5.0555,-4.256604 -12.6859,-11.103 -21.9437,-22.6242 -29.5527,-34.6599 -2e-4,-3e-4 -3e-4,-7e-4 -5e-4,0 -2.1284,-3.3662 -4.1271,-6.773 -6.0384,-10.2216 -0.02,-0.036 -0.041,-0.071 -0.061,-0.107 0,-0.01 -0.01,-0.01 -0.01,-0.015 -1.9178,-3.465 -3.7466,-6.973 -5.5258,-10.5254 -0.01,-0.016 -0.016,-0.032 -0.024,-0.048 v 0 c -1.789,-3.5732 -3.528,-7.1913 -5.2581,-10.8572 -0.5351,-1.1336 -1.7956,-1.8174 -3.1099,-1.6862 -1.3187,0.1285 -2.3974,1.0379 -2.6706,2.25 -1.3609,6.0401 -1.8896,11.6413 -1.8904,16.6977 -4e-4,2.5281 0.1311,4.9199 0.3566,7.1623 0.2255,2.2425 0.5451,4.3356 0.9204,6.2658 -1.5061,-2.263 -3.0719,-4.875 -4.6044,-7.8471 -0.7641,-1.4818 -1.5199,-3.0536 -2.2562,-4.716 0,0 0,-0.01 -0.01,-0.014 0,0 0,-0.01 0,-0.011 -0.7365,-1.6644 -1.4537,-3.4193 -2.1394,-5.2674 -0.6871,-1.8522 -1.3429,-3.7972 -1.9559,-5.8368 -0.613,-2.0396 -1.1829,-4.1738 -1.6986,-6.4038 -0.5158,-2.2299 -0.9772,-4.5562 -1.3726,-6.9794 -0.3953,-2.4232 -0.7247,-4.9434 -0.9766,-7.5628 -0.1184,-1.2278 -1.0662,-2.2462 -2.3513,-2.5244 -0.3212,-0.07 -0.6458,-0.09 -0.9622,-0.064 z" />
  <path
     d="m 256.27915,158.15403 c 0,-4.9626 -4.0374,-9 -9,-9 -4.9628,0 -9,4.0374 -9,9 0,4.9626 4.0372,9 9,9 4.9626,0 9,-4.0374 9,-9 z"
     id="path1"
     style="fill:#000000;fill-opacity:1;stroke-width:0.251266" />
  <path
     d="m 247.27919,155.5322 c 0,-1.24065 -1.00935,-2.25 -2.25,-2.25 -1.2407,0 -2.25,1.00935 -2.25,2.25 0,1.24065 1.0093,2.25 2.25,2.25 1.24065,0 2.25,-1.00935 2.25,-2.25 z"
     id="path2"
     style="fill:#ffffff;fill-opacity:1;stroke-width:0.0628165" />
</svg>
